<svg xmlns="http://www.w3.org/2000/svg" aria-hidden="true" style="position:absolute;width:0;height:0;overflow:hidden"><defs>
   <symbol id="icon-arrow-right2" viewBox="0 0 32 32"><path d="m19.414 27.414 10-10a2 2 0 0 0 0-2.828l-10-10a2 2 0 1 0-2.828 2.828L23.172 14H4a2 2 0 1 0 0 4h19.172l-6.586 6.586c-.39.39-.586.902-.586 1.414s.195 1.024.586 1.414a2 2 0 0 0 2.828 0z"/>
   </symbol>
    <symbol id="icon-cancel" viewBox="0 0 32 32"><path d="m19.587 16.001 6.096 6.096a1.015 1.015 0 0 1 0 1.435l-2.151 2.151a1.015 1.015 0 0 1-1.435 0L16 19.587l-6.097 6.096a1.014 1.014 0 0 1-1.434 0l-2.152-2.151a1.015 1.015 0 0 1 0-1.435l6.097-6.096-6.097-6.097a1.015 1.015 0 0 1 0-1.435L8.47 6.318a1.014 1.014 0 0 1 1.434 0L16 12.415l6.097-6.097a1.015 1.015 0 0 1 1.435 0l2.151 2.152a1.015 1.015 0 0 1 0 1.435l-6.096 6.096z"/></symbol>
   </defs>
   </svg>